<?xml version="1.0" encoding="UTF-8"?>
<svg version="1.1" xmlns="http://www.w3.org/2000/svg" width="512" height="512">
<path d="M0 0 C0.90472964 -0.00226556 1.80945929 -0.00453111 2.74160498 -0.00686532 C5.79167255 -0.01322619 8.84169592 -0.01237462 11.89176941 -0.0115509 C14.07111672 -0.01454112 16.2504635 -0.01794333 18.42980957 -0.02172852 C24.36372474 -0.03058737 30.2976255 -0.03290744 36.23154664 -0.0335443 C41.1794658 -0.03449201 46.12738158 -0.03816876 51.07529944 -0.0417164 C62.07952956 -0.04940226 73.08375294 -0.05238437 84.08798555 -0.05171105 C84.74865415 -0.05167109 85.40932274 -0.05163113 86.0900116 -0.05158997 C86.75148552 -0.05154909 87.41295944 -0.0515082 88.09447803 -0.05146609 C98.14606252 -0.05108498 108.19761594 -0.05887919 118.24919128 -0.07209778 C129.9163784 -0.0873885 141.58354255 -0.09585676 153.25074023 -0.09513456 C159.42855728 -0.09487921 165.60633459 -0.09775047 171.78414345 -0.10831261 C177.59448269 -0.11797458 183.40474404 -0.11808582 189.21508598 -0.11079597 C191.34962706 -0.10974772 193.48417293 -0.11212725 195.61870575 -0.11815643 C198.52901795 -0.12584536 201.4390591 -0.12125204 204.34936523 -0.11352539 C205.62115835 -0.12124074 205.62115835 -0.12124074 206.91864425 -0.12911195 C211.16680849 -0.10413043 214.52431025 0.08878334 218.36515808 2.13371277 C221.22024057 5.17222234 222.36882844 8.75341359 222.35783386 12.8881073 C222.25970398 13.89986023 222.1615741 14.91161316 222.06047058 15.95402527 C221.95428406 17.10266052 221.84809753 18.25129578 221.73869324 19.43473816 C221.55379333 21.26573059 221.55379333 21.26573059 221.36515808 23.13371277 C221.24833679 24.36533142 221.1315155 25.59695007 221.01115417 26.8658905 C220.70081888 30.1281501 220.38418056 33.38972423 220.06510925 36.65113831 C219.96613342 37.66345016 219.96613342 37.66345016 219.86515808 38.69621277 C219.7972406 39.39082611 219.72932312 40.08543945 219.65934753 40.80110168 C218.74183391 50.26004282 217.96422426 59.69937441 217.83195496 69.20817566 C217.70860094 73.66433962 217.2177549 76.63928166 214.36515808 80.13371277 C210.00064257 82.78158468 205.89455917 82.46504105 200.92765808 82.44621277 C200.08138855 82.46232605 199.23511902 82.47843933 198.36320496 82.49504089 C193.52184287 82.49883209 190.30461149 82.25339552 186.36515808 79.13371277 C183.55777084 76.32632553 183.87008932 74.18978393 183.51359558 70.26261902 C183.44983734 69.58448654 183.3860791 68.90635406 183.32038879 68.20767212 C183.11859745 66.03786154 182.92941547 63.86714875 182.74015808 61.69621277 C182.60553063 60.23715536 182.47012323 58.77816969 182.33390808 57.31925964 C181.36515808 46.79017416 181.36515808 46.79017416 181.36515808 43.13371277 C180.33390808 43.00996277 179.30265808 42.88621277 178.24015808 42.75871277 C175.59027048 42.4349387 172.9575163 42.06890998 170.32069397 41.6497345 C161.94456077 40.33898662 153.7810898 39.80143241 145.31047058 39.71965027 C144.04290924 39.70028412 142.7753479 39.68091797 141.46937561 39.66096497 C138.15204238 39.61185629 134.83473787 39.5703693 131.51725769 39.53282166 C128.11099508 39.49230998 124.70488737 39.44143698 121.29875183 39.39152527 C114.65432149 39.2962098 108.00982167 39.21096847 101.36515808 39.13371277 C100.52355766 58.79486846 100.09984715 78.44353395 99.83293152 98.1191864 C99.7814796 101.86169138 99.72649151 105.60414461 99.67179871 109.34660339 C99.56591059 116.60892969 99.46563889 123.87130175 99.36515808 131.13371277 C119.49515808 130.80371277 139.62515808 130.47371277 160.36515808 130.13371277 C161.02515808 122.54371277 161.68515808 114.95371277 162.36515808 107.13371277 C165.36515808 101.13371277 165.36515808 101.13371277 167.36515808 100.13371277 C171.31730884 99.83813723 175.27824931 99.85572417 179.24015808 99.82121277 C180.34230652 99.79220886 181.44445496 99.76320496 182.58000183 99.73332214 C183.64090027 99.72494324 184.70179871 99.71656433 185.79484558 99.70793152 C186.76663757 99.693349 187.73842957 99.67876648 188.7396698 99.66374207 C191.36515808 100.13371277 191.36515808 100.13371277 193.65080261 101.5978241 C197.45403454 107.22359596 196.51685083 115.54489879 196.52629089 122.15422058 C196.5312558 123.00581757 196.5362207 123.85741455 196.54133606 124.7348175 C196.55580329 127.51883277 196.56272972 130.30279129 196.56828308 133.08683777 C196.57252415 134.52139439 196.57252415 134.52139439 196.57685089 135.98493195 C196.59177222 141.03517935 196.60104916 146.08539865 196.60539246 151.13566589 C196.6109006 156.34657034 196.63499772 161.5572166 196.66336441 166.7680397 C196.68197783 170.78461979 196.68719546 174.80113708 196.68872833 178.81775665 C196.69175278 180.73948851 196.69977431 182.66121931 196.71291351 184.58290863 C196.7299645 187.26573602 196.72809741 189.94792352 196.72160339 192.63078308 C196.73081818 193.42153229 196.74003296 194.21228149 196.74952698 195.0269928 C196.71502122 199.5766991 196.18448329 202.51457861 193.36515808 206.13371277 C189.10069774 209.03639425 184.39832882 208.46405437 179.42765808 208.44621277 C178.53369324 208.46232605 177.63972839 208.47843933 176.71867371 208.49504089 C171.84218217 208.49866115 168.21899028 208.47470624 164.36515808 205.13371277 C162.49999011 202.07013766 162.02029423 199.4749857 161.73234558 195.92277527 C161.64855652 194.92504089 161.56476746 193.92730652 161.47843933 192.89933777 C161.39980652 191.86293152 161.32117371 190.82652527 161.24015808 189.75871277 C161.15379089 188.73004089 161.06742371 187.70136902 160.97843933 186.64152527 C160.58500128 181.79536774 160.24809563 177.00016599 160.36515808 172.13371277 C152.68718868 171.33019542 145.07040233 170.94168481 137.35343933 170.81730652 C135.7120826 170.78613487 135.7120826 170.78613487 134.03756714 170.7543335 C130.58432035 170.68959216 127.13100563 170.63030826 123.67765808 170.57121277 C121.31892744 170.5279556 118.96020337 170.48433918 116.60148621 170.44035339 C110.85611273 170.33398957 105.11067355 170.23209143 99.36515808 170.13371277 C99.43449051 171.1065773 99.50382294 172.07944183 99.57525635 173.08178711 C100.18533594 181.98380748 100.526572 190.85134162 100.59495354 199.77684593 C100.61189192 201.91368118 100.63512664 204.05037506 100.65985107 206.18713379 C100.72921987 212.24989794 100.79020454 218.31271596 100.84196472 224.37565613 C100.99076743 241.38246738 101.28031716 258.22712728 103.36515808 275.13371277 C113.24856303 276.3729762 123.01308869 277.37975108 132.97453308 277.69230652 C136.60616011 278.16508746 138.50504369 278.87545698 141.36515808 281.13371277 C144.01914004 285.49146414 143.6964697 289.60870663 143.67765808 294.57121277 C143.69377136 295.4174823 143.70988464 296.26375183 143.72648621 297.13566589 C143.7302497 301.94164921 143.53346786 305.25619497 140.36515808 309.13371277 C137.67236203 310.48011079 135.5871987 310.26582353 132.57087708 310.27415466 C131.33702774 310.27986481 130.10317841 310.28557495 128.8319397 310.29145813 C127.45710764 310.29270354 126.08227548 310.29382863 124.70744324 310.29484558 C123.26537956 310.29947282 121.82331712 310.30449736 120.3812561 310.30989075 C116.45767784 310.32302542 112.5341167 310.32946173 108.61051989 310.33390141 C106.16047846 310.33683029 103.71044174 310.34093473 101.26040268 310.34540558 C93.59842024 310.35908305 85.93644852 310.3687486 78.27445471 310.37260747 C69.42298821 310.37708962 60.57167602 310.39464366 51.72025645 310.42360806 C44.88283966 310.44520721 38.04546635 310.4553108 31.2080158 310.45664859 C27.12219973 310.45769785 23.03652867 310.46363126 18.95074844 310.4814682 C15.10775975 310.49791855 11.26502554 310.50011932 7.42201424 310.49132919 C6.01108558 310.49055719 4.60014342 310.494923 3.18924904 310.50478745 C1.26400948 310.51745918 -0.6613318 310.50985585 -2.58659363 310.50120544 C-3.66433737 310.502672 -4.74208111 310.50413857 -5.85248375 310.50564957 C-9.02192833 310.08196829 -10.37547471 309.3663177 -12.63484192 307.13371277 C-14.01531213 302.99230213 -13.85878794 299.09670054 -13.88484192 294.75871277 C-13.90546692 293.90793152 -13.92609192 293.05715027 -13.94734192 292.18058777 C-13.97725845 287.37898407 -13.90131462 283.94459758 -10.63484192 280.13371277 C-7.72618687 278.37350783 -5.49368461 277.87171752 -2.11531067 277.78996277 C-0.82850403 277.74549011 -0.82850403 277.74549011 0.48429871 277.70011902 C1.3731073 277.67820496 2.26191589 277.65629089 3.17765808 277.63371277 C9.2606764 277.48174905 14.5787411 277.09146367 20.36515808 275.13371277 C20.68949192 270.96788779 20.99694562 266.80094223 21.30265808 262.63371277 C21.3896698 261.51867371 21.47668152 260.40363464 21.56632996 259.25480652 C23.65588298 230.31062761 23.52677429 201.26754499 23.49552917 172.26652527 C23.48987647 166.98346607 23.49319864 161.70045776 23.49896526 156.41740036 C23.5187421 135.06812849 23.40412266 113.72810172 22.92375183 92.38371277 C22.90460346 91.5079937 22.88545509 90.63227463 22.86572647 89.73001862 C22.44879745 71.17768193 21.47862927 52.65590895 20.36515808 34.13371277 C19.57343201 34.08883728 18.78170593 34.04396179 17.96598816 33.99772644 C14.36891042 33.78604059 10.77343914 33.55384863 7.17765808 33.32121277 C5.30883972 33.21583191 5.30883972 33.21583191 3.40226746 33.10832214 C1.59919128 32.98747253 1.59919128 32.98747253 -0.24031067 32.86418152 C-1.34527893 32.79610291 -2.45024719 32.72802429 -3.58869934 32.65788269 C-6.96652657 32.07663759 -8.9205829 31.2125106 -11.63484192 29.13371277 C-14.44924189 24.96920811 -13.96572565 20.5458423 -13.94734192 15.69621277 C-13.9634552 14.84994324 -13.97956848 14.00367371 -13.99617004 13.13175964 C-13.99993354 8.32577633 -13.80315169 5.01123057 -10.63484192 1.13371277 C-7.32699372 -0.52021133 -3.63632156 -0.00658965 0 0 Z " fill="#295FCB" transform="translate(157.6348419189453,85.86628723144531)"/>
<path d="M0 0 C0.90472964 -0.00226556 1.80945929 -0.00453111 2.74160498 -0.00686532 C5.79167255 -0.01322619 8.84169592 -0.01237462 11.89176941 -0.0115509 C14.07111672 -0.01454112 16.2504635 -0.01794333 18.42980957 -0.02172852 C24.36372474 -0.03058737 30.2976255 -0.03290744 36.23154664 -0.0335443 C41.1794658 -0.03449201 46.12738158 -0.03816876 51.07529944 -0.0417164 C62.07952956 -0.04940226 73.08375294 -0.05238437 84.08798555 -0.05171105 C84.74865415 -0.05167109 85.40932274 -0.05163113 86.0900116 -0.05158997 C86.75148552 -0.05154909 87.41295944 -0.0515082 88.09447803 -0.05146609 C98.14606252 -0.05108498 108.19761594 -0.05887919 118.24919128 -0.07209778 C129.9163784 -0.0873885 141.58354255 -0.09585676 153.25074023 -0.09513456 C159.42855728 -0.09487921 165.60633459 -0.09775047 171.78414345 -0.10831261 C177.59448269 -0.11797458 183.40474404 -0.11808582 189.21508598 -0.11079597 C191.34962706 -0.10974772 193.48417293 -0.11212725 195.61870575 -0.11815643 C198.52901795 -0.12584536 201.4390591 -0.12125204 204.34936523 -0.11352539 C205.62115835 -0.12124074 205.62115835 -0.12124074 206.91864425 -0.12911195 C211.16680849 -0.10413043 214.52431025 0.08878334 218.36515808 2.13371277 C221.22024057 5.17222234 222.36882844 8.75341359 222.35783386 12.8881073 C222.25970398 13.89986023 222.1615741 14.91161316 222.06047058 15.95402527 C221.95428406 17.10266052 221.84809753 18.25129578 221.73869324 19.43473816 C221.55379333 21.26573059 221.55379333 21.26573059 221.36515808 23.13371277 C221.24833679 24.36533142 221.1315155 25.59695007 221.01115417 26.8658905 C220.70081888 30.1281501 220.38418056 33.38972423 220.06510925 36.65113831 C219.96613342 37.66345016 219.96613342 37.66345016 219.86515808 38.69621277 C219.7972406 39.39082611 219.72932312 40.08543945 219.65934753 40.80110168 C218.74183391 50.26004282 217.96422426 59.69937441 217.83195496 69.20817566 C217.70860094 73.66433962 217.2177549 76.63928166 214.36515808 80.13371277 C210.00064257 82.78158468 205.89455917 82.46504105 200.92765808 82.44621277 C200.08138855 82.46232605 199.23511902 82.47843933 198.36320496 82.49504089 C193.52184287 82.49883209 190.30461149 82.25339552 186.36515808 79.13371277 C183.55777084 76.32632553 183.87008932 74.18978393 183.51359558 70.26261902 C183.44983734 69.58448654 183.3860791 68.90635406 183.32038879 68.20767212 C183.11859745 66.03786154 182.92941547 63.86714875 182.74015808 61.69621277 C182.60553063 60.23715536 182.47012323 58.77816969 182.33390808 57.31925964 C181.36515808 46.79017416 181.36515808 46.79017416 181.36515808 43.13371277 C180.33390808 43.00996277 179.30265808 42.88621277 178.24015808 42.75871277 C175.59027048 42.4349387 172.9575163 42.06890998 170.32069397 41.6497345 C161.94456077 40.33898662 153.7810898 39.80143241 145.31047058 39.71965027 C144.04290924 39.70028412 142.7753479 39.68091797 141.46937561 39.66096497 C138.15204238 39.61185629 134.83473787 39.5703693 131.51725769 39.53282166 C128.11099508 39.49230998 124.70488737 39.44143698 121.29875183 39.39152527 C114.65432149 39.2962098 108.00982167 39.21096847 101.36515808 39.13371277 C100.52355766 58.79486846 100.09984715 78.44353395 99.83293152 98.1191864 C99.7814796 101.86169138 99.72649151 105.60414461 99.67179871 109.34660339 C99.56591059 116.60892969 99.46563889 123.87130175 99.36515808 131.13371277 C119.49515808 130.80371277 139.62515808 130.47371277 160.36515808 130.13371277 C161.02515808 122.54371277 161.68515808 114.95371277 162.36515808 107.13371277 C165.36515808 101.13371277 165.36515808 101.13371277 167.36515808 100.13371277 C171.31730884 99.83813723 175.27824931 99.85572417 179.24015808 99.82121277 C180.34230652 99.79220886 181.44445496 99.76320496 182.58000183 99.73332214 C183.64090027 99.72494324 184.70179871 99.71656433 185.79484558 99.70793152 C186.76663757 99.693349 187.73842957 99.67876648 188.7396698 99.66374207 C191.36515808 100.13371277 191.36515808 100.13371277 193.65080261 101.5978241 C197.45403454 107.22359596 196.51685083 115.54489879 196.52629089 122.15422058 C196.5312558 123.00581757 196.5362207 123.85741455 196.54133606 124.7348175 C196.55580329 127.51883277 196.56272972 130.30279129 196.56828308 133.08683777 C196.57252415 134.52139439 196.57252415 134.52139439 196.57685089 135.98493195 C196.59177222 141.03517935 196.60104916 146.08539865 196.60539246 151.13566589 C196.6109006 156.34657034 196.63499772 161.5572166 196.66336441 166.7680397 C196.68197783 170.78461979 196.68719546 174.80113708 196.68872833 178.81775665 C196.69175278 180.73948851 196.69977431 182.66121931 196.71291351 184.58290863 C196.7299645 187.26573602 196.72809741 189.94792352 196.72160339 192.63078308 C196.73081818 193.42153229 196.74003296 194.21228149 196.74952698 195.0269928 C196.71502122 199.5766991 196.18448329 202.51457861 193.36515808 206.13371277 C189.10069774 209.03639425 184.39832882 208.46405437 179.42765808 208.44621277 C178.53369324 208.46232605 177.63972839 208.47843933 176.71867371 208.49504089 C171.84218217 208.49866115 168.21899028 208.47470624 164.36515808 205.13371277 C162.49999011 202.07013766 162.02029423 199.4749857 161.73234558 195.92277527 C161.64855652 194.92504089 161.56476746 193.92730652 161.47843933 192.89933777 C161.39980652 191.86293152 161.32117371 190.82652527 161.24015808 189.75871277 C161.15379089 188.73004089 161.06742371 187.70136902 160.97843933 186.64152527 C160.58500128 181.79536774 160.24809563 177.00016599 160.36515808 172.13371277 C152.68718868 171.33019542 145.07040233 170.94168481 137.35343933 170.81730652 C135.7120826 170.78613487 135.7120826 170.78613487 134.03756714 170.7543335 C130.58432035 170.68959216 127.13100563 170.63030826 123.67765808 170.57121277 C121.31892744 170.5279556 118.96020337 170.48433918 116.60148621 170.44035339 C110.85611273 170.33398957 105.11067355 170.23209143 99.36515808 170.13371277 C99.43449051 171.1065773 99.50382294 172.07944183 99.57525635 173.08178711 C100.18533594 181.98380748 100.526572 190.85134162 100.59495354 199.77684593 C100.61189192 201.91368118 100.63512664 204.05037506 100.65985107 206.18713379 C100.72921987 212.24989794 100.79020454 218.31271596 100.84196472 224.37565613 C100.99076743 241.38246738 101.28031716 258.22712728 103.36515808 275.13371277 C113.24856303 276.3729762 123.01308869 277.37975108 132.97453308 277.69230652 C136.60616011 278.16508746 138.50504369 278.87545698 141.36515808 281.13371277 C144.01914004 285.49146414 143.6964697 289.60870663 143.67765808 294.57121277 C143.69377136 295.4174823 143.70988464 296.26375183 143.72648621 297.13566589 C143.7302497 301.94164921 143.53346786 305.25619497 140.36515808 309.13371277 C137.67236203 310.48011079 135.5871987 310.26582353 132.57087708 310.27415466 C131.33702774 310.27986481 130.10317841 310.28557495 128.8319397 310.29145813 C127.45710764 310.29270354 126.08227548 310.29382863 124.70744324 310.29484558 C123.26537956 310.29947282 121.82331712 310.30449736 120.3812561 310.30989075 C116.45767784 310.32302542 112.5341167 310.32946173 108.61051989 310.33390141 C106.16047846 310.33683029 103.71044174 310.34093473 101.26040268 310.34540558 C93.59842024 310.35908305 85.93644852 310.3687486 78.27445471 310.37260747 C69.42298821 310.37708962 60.57167602 310.39464366 51.72025645 310.42360806 C44.88283966 310.44520721 38.04546635 310.4553108 31.2080158 310.45664859 C27.12219973 310.45769785 23.03652867 310.46363126 18.95074844 310.4814682 C15.10775975 310.49791855 11.26502554 310.50011932 7.42201424 310.49132919 C6.01108558 310.49055719 4.60014342 310.494923 3.18924904 310.50478745 C1.26400948 310.51745918 -0.6613318 310.50985585 -2.58659363 310.50120544 C-3.66433737 310.502672 -4.74208111 310.50413857 -5.85248375 310.50564957 C-9.02192833 310.08196829 -10.37547471 309.3663177 -12.63484192 307.13371277 C-14.01531213 302.99230213 -13.85878794 299.09670054 -13.88484192 294.75871277 C-13.90546692 293.90793152 -13.92609192 293.05715027 -13.94734192 292.18058777 C-13.97725845 287.37898407 -13.90131462 283.94459758 -10.63484192 280.13371277 C-7.72618687 278.37350783 -5.49368461 277.87171752 -2.11531067 277.78996277 C-0.82850403 277.74549011 -0.82850403 277.74549011 0.48429871 277.70011902 C1.3731073 277.67820496 2.26191589 277.65629089 3.17765808 277.63371277 C9.2606764 277.48174905 14.5787411 277.09146367 20.36515808 275.13371277 C20.68949192 270.96788779 20.99694562 266.80094223 21.30265808 262.63371277 C21.3896698 261.51867371 21.47668152 260.40363464 21.56632996 259.25480652 C23.65588298 230.31062761 23.52677429 201.26754499 23.49552917 172.26652527 C23.48987647 166.98346607 23.49319864 161.70045776 23.49896526 156.41740036 C23.5187421 135.06812849 23.40412266 113.72810172 22.92375183 92.38371277 C22.90460346 91.5079937 22.88545509 90.63227463 22.86572647 89.73001862 C22.44879745 71.17768193 21.47862927 52.65590895 20.36515808 34.13371277 C19.57343201 34.08883728 18.78170593 34.04396179 17.96598816 33.99772644 C14.36891042 33.78604059 10.77343914 33.55384863 7.17765808 33.32121277 C5.30883972 33.21583191 5.30883972 33.21583191 3.40226746 33.10832214 C1.59919128 32.98747253 1.59919128 32.98747253 -0.24031067 32.86418152 C-1.34527893 32.79610291 -2.45024719 32.72802429 -3.58869934 32.65788269 C-6.96652657 32.07663759 -8.9205829 31.2125106 -11.63484192 29.13371277 C-14.44924189 24.96920811 -13.96572565 20.5458423 -13.94734192 15.69621277 C-13.9634552 14.84994324 -13.97956848 14.00367371 -13.99617004 13.13175964 C-13.99993354 8.32577633 -13.80315169 5.01123057 -10.63484192 1.13371277 C-7.32699372 -0.52021133 -3.63632156 -0.00658965 0 0 Z M-5.63484192 7.13371277 C-5.63484192 12.74371277 -5.63484192 18.35371277 -5.63484192 24.13371277 C-2.29173755 24.80233364 0.66691097 25.30585042 4.01750183 25.56340027 C4.87666199 25.63687683 5.73582214 25.71035339 6.62101746 25.78605652 C8.40426965 25.9341197 10.18815203 26.07478474 11.97257996 26.20793152 C17.01829676 26.65391997 21.05562477 27.23371383 25.36515808 30.13371277 C38.2175914 46.43903863 30.52880517 94.27234423 30.53241515 115.31403041 C30.53313996 117.70434649 30.53530015 120.09465727 30.53791237 122.484972 C30.54708464 130.90605647 30.5512576 139.32712542 30.55046082 147.74821472 C30.54992828 154.61412392 30.55699757 161.47997623 30.57096863 168.34587097 C30.70261587 234.58903976 30.70261587 234.58903976 29.47843933 257.38761902 C29.42001893 258.50767491 29.42001893 258.50767491 29.36041832 259.6503582 C28.97658099 266.65238858 28.60217637 273.45375592 26.36515808 280.13371277 C18.64267735 286.74533405 3.93556975 285.55368782 -5.63484192 286.13371277 C-5.63484192 291.74371277 -5.63484192 297.35371277 -5.63484192 303.13371277 C40.89515808 303.13371277 87.42515808 303.13371277 135.36515808 303.13371277 C135.36515808 297.52371277 135.36515808 291.91371277 135.36515808 286.13371277 C133.19695496 285.95195496 131.02875183 285.77019714 128.79484558 285.58293152 C126.67966174 285.3971415 124.56489352 285.20715573 122.45011902 285.01676941 C120.98793546 284.88738264 119.52536274 284.76231427 118.06242371 284.64176941 C115.95120813 284.46703324 113.84191195 284.27645667 111.73234558 284.08293152 C110.46503601 283.97295837 109.19772644 283.86298523 107.89201355 283.74967957 C104.17539207 283.10057005 101.57684102 282.09621172 98.36515808 280.13371277 C93.13984201 272.29573866 94.1827909 259.10839312 93.84172058 249.89543152 C93.77930931 248.23557724 93.77930931 248.23557724 93.71563721 246.54219055 C93.1742625 231.02419057 93.02100581 215.49742467 92.83293152 199.9719696 C92.78166527 195.80059181 92.72654211 191.62926488 92.67179871 187.45793152 C92.56593205 179.34990224 92.46414606 171.24182894 92.36515808 163.13371277 C98.28353075 163.10858414 104.2018709 163.090655 110.12028503 163.07878113 C112.12452232 163.07381975 114.12875613 163.06704852 116.13298035 163.05827332 C126.34284051 163.01476175 136.54909674 163.03008729 146.75187683 163.45011902 C147.49315323 163.47235031 148.23442963 163.4945816 148.99816895 163.51748657 C154.34044062 163.78299224 159.53874178 164.73461047 164.36515808 167.13371277 C170.08964858 175.72044851 169.37702555 190.18180657 170.36515808 200.13371277 C176.30515808 200.13371277 182.24515808 200.13371277 188.36515808 200.13371277 C188.36515808 169.44371277 188.36515808 138.75371277 188.36515808 107.13371277 C182.42515808 107.13371277 176.48515808 107.13371277 170.36515808 107.13371277 C170.09961121 108.97578308 169.83406433 110.81785339 169.56047058 112.71574402 C169.20409639 115.12595895 168.84730385 117.53611205 168.49015808 119.94621277 C168.31613464 121.16115417 168.14211121 122.37609558 167.96281433 123.62785339 C167.78879089 124.7912323 167.61476746 125.95461121 167.43547058 127.15324402 C167.27836609 128.22679138 167.1212616 129.30033875 166.95939636 130.40641785 C166.36515808 133.13371277 166.36515808 133.13371277 164.36515808 136.13371277 C155.60965782 138.62732165 146.21435268 138.40517098 137.18937683 138.32902527 C135.25261833 138.32478043 135.25261833 138.32478043 133.2767334 138.32044983 C129.89185929 138.31291857 126.50716478 138.29336457 123.12236023 138.27104187 C119.64928108 138.25035293 116.17617209 138.24139954 112.70304871 138.23136902 C105.9236794 138.21010535 99.14442743 138.17610152 92.36515808 138.13371277 C92.47391502 127.85668713 92.58676827 117.57971476 92.70449734 107.30278778 C92.75907429 102.52802347 92.81237043 97.75325285 92.86247253 92.97843933 C93.07632409 72.68140435 93.29110997 52.40752392 94.36515808 32.13371277 C102.11659355 32.08230697 109.86798387 32.04768873 117.61955261 32.02384949 C120.24749901 32.01389393 122.87543463 32.00032464 125.50334167 31.98283386 C146.70893796 31.84539767 166.89867131 32.24531015 187.36515808 38.13371277 C188.88236057 45.77864569 189.67554687 53.30885134 190.02311707 61.08073425 C190.22911668 65.53043066 190.73016638 69.68877085 191.36515808 74.13371277 C197.30515808 74.13371277 203.24515808 74.13371277 209.36515808 74.13371277 C209.65519714 70.5662323 209.65519714 70.5662323 209.95109558 66.92668152 C210.21301517 63.72476774 210.47646201 60.5229807 210.74015808 57.32121277 C210.80796478 56.49648468 210.87577148 55.67175659 210.94563293 54.82203674 C211.77074404 44.819078 212.59831812 34.82089652 213.80607605 24.85514832 C215.18871809 15.57496378 215.18871809 15.57496378 212.36515808 7.13371277 C209.45609706 6.83955929 206.75991531 6.74274835 203.848526 6.77294922 C202.95660274 6.77038594 202.06467947 6.76782267 201.14572823 6.76518172 C198.13910122 6.7602167 195.13296975 6.77678142 192.12638855 6.7931366 C189.97833773 6.79398228 187.83028603 6.79350887 185.68223572 6.79180908 C179.83535786 6.79094542 173.9886632 6.80863115 168.14182806 6.82953095 C162.03725446 6.84823605 155.93267705 6.85004332 149.82807922 6.85360718 C138.26125023 6.86294582 126.69450592 6.88758417 115.12771428 6.91765565 C101.96227127 6.95114314 88.7968243 6.96767143 75.63134933 6.98274195 C48.54257031 7.01413216 21.4538725 7.06752951 -5.63484192 7.13371277 Z " fill="#274E9C" transform="translate(157.6348419189453,85.86628723144531)"/>
</svg>
